Coordinates
version=1
nRows=16
nColumns=40
inDegrees=yes

Units are S.I. units (second, meters, Newtons, ...)
If the header above contains a line with 'inDegrees', this indicates whether rotational values are in degrees (yes) or radians (no).

endheader
time	pelvis_tilt	pelvis_list	pelvis_rotation	pelvis_tx	pelvis_ty	pelvis_tz	hip_flexion_r	hip_adduction_r	hip_rotation_r	knee_angle_r	knee_angle_r_beta	ankle_angle_r	subtalar_angle_r	mtp_angle_r	hip_flexion_l	hip_adduction_l	hip_rotation_l	knee_angle_l	knee_angle_l_beta	ankle_angle_l	subtalar_angle_l	mtp_angle_l	lumbar_extension	lumbar_bending	lumbar_rotation	arm_flex_r	arm_add_r	arm_rot_r	elbow_flex_r	pro_sup_r	wrist_flex_r	wrist_dev_r	arm_flex_l	arm_add_l	arm_rot_l	elbow_flex_l	pro_sup_l	wrist_flex_l	wrist_dev_l
      7.50000000	     25.22997989	      2.99961606	   -176.59380283	      0.37553128	      0.82835507	     -0.59438463	     51.30253528	    -12.35592473	    -10.63863034	     22.88843916	      0.39947862	     -2.74274083	      0.00000000	      0.00000000	     54.24019857	    -12.88276588	     -6.76474369	     24.06226965	      0.41996583	     -4.08173187	      0.00000000	      0.00000000	    -49.89126347	      0.15198187	      1.91717927	     55.95607560	    -20.08843379	     62.89368867	     22.97196503	     68.43564004	      0.00000000	      0.00000000	     58.37614821	     -5.75862666	     18.16664370	     14.73820586	     34.90692897	      0.00000000	      0.00000000
      7.50500000	     25.82346195	      3.10450443	   -176.77034185	      0.37614518	      0.82735685	     -0.59478979	     51.86377960	    -12.03039166	     -9.95958957	     22.55787243	      0.39370915	     -2.86492603	      0.00000000	      0.00000000	     54.97488661	    -12.98465011	     -6.32629290	     24.16165640	      0.42170046	     -4.16048655	      0.00000000	      0.00000000	    -48.87608206	      0.08349901	      2.14098355	     54.86803812	    -19.69752518	     59.82967662	     22.81400802	     66.27856428	      0.00000000	      0.00000000	     57.88820813	     -5.73198053	     17.95868557	     15.00306425	     35.59111851	      0.00000000	      0.00000000
      7.51000000	     25.39574334	      3.33601010	   -176.42745198	      0.37560140	      0.82843586	     -0.59429517	     51.20033008	    -12.17535995	    -10.88079745	     22.47460337	      0.39225583	     -2.92764694	      0.00000000	      0.00000000	     54.46154011	    -12.82419378	     -5.78094031	     23.84195667	      0.41612064	     -4.33062552	      0.00000000	      0.00000000	    -49.02672487	      0.53853035	      2.04771818	     54.56387020	    -19.49319907	     59.06877534	     22.70264653	     65.85994741	      0.00000000	      0.00000000	     57.67650874	     -5.74335939	     17.97995913	     14.93242195	     35.61645613	      0.00000000	      0.00000000
      7.51500000	     25.24546005	      3.48775849	   -176.27403442	      0.37540296	      0.82891154	     -0.59412910	     50.88647902	    -12.17649827	    -11.20870511	     22.31549218	      0.38947881	     -3.04220213	      0.00000000	      0.00000000	     54.33313618	    -12.77284351	     -5.43734693	     23.77775639	      0.41500014	     -4.34485620	      0.00000000	      0.00000000	    -48.86002354	      0.77376368	      2.05703571	     53.92414861	    -19.24301734	     57.10692832	     22.77351313	     64.48428550	      0.00000000	      0.00000000	     57.55451063	     -5.77325737	     18.02696558	     14.79501845	     36.00783559	      0.00000000	      0.00000000
      7.52000000	     24.64970569	      3.22804818	   -176.58640813	      0.37450218	      0.83026994	     -0.59492053	     50.35364420	    -12.11140087	    -11.30923705	     22.47772035	      0.39231023	     -3.01478068	      0.00000000	      0.00000000	     53.49142919	    -13.01927715	     -6.30648715	     23.81529906	      0.41565538	     -4.09003266	      0.00000000	      0.00000000	    -49.23030835	      0.28266327	      2.20774401	     53.42721433	    -19.23427521	     55.95607351	     23.09441511	     63.55501850	      0.00000000	      0.00000000	     57.81438731	     -5.49615620	     18.22661645	     13.93727159	     36.40024502	      0.00000000	      0.00000000
      7.52500000	     24.75577830	      3.49464915	   -176.47429622	      0.37460338	      0.83021235	     -0.59480811	     50.26161102	    -11.95954247	    -11.44769700	     22.16869840	      0.38691678	     -3.20308317	      0.00000000	      0.00000000	     53.73004507	    -13.03676895	     -5.67316158	     23.79498963	      0.41530091	     -4.34259689	      0.00000000	      0.00000000	    -48.74754345	      0.59206729	      2.20814960	     52.91091283	    -18.91791727	     54.66936282	     23.00253435	     62.64741131	      0.00000000	      0.00000000	     57.30821114	     -5.74112242	     18.24195050	     14.30327620	     36.74947066	      0.00000000	      0.00000000
      7.53000000	     24.36211298	      3.27134991	   -176.79886603	      0.37395846	      0.83115227	     -0.59558948	     49.90248264	    -11.83966963	    -11.29043971	     22.20337635	      0.38752202	     -3.06206984	      0.00000000	      0.00000000	     53.11059500	    -13.25445609	     -6.32131627	     23.77793657	      0.41500328	     -4.13971851	      0.00000000	      0.00000000	    -48.87202175	      0.19373070	      2.26065818	     54.39009255	    -20.05682173	     62.39157192	     23.15129454	     68.75898982	      0.00000000	      0.00000000	     57.00290026	     -5.89490209	     18.50932754	     14.62958536	     35.57391187	      0.00000000	      0.00000000
      7.53500000	     24.16677184	      3.32533659	   -176.84462738	      0.37365722	      0.83166582	     -0.59566140	     49.64226432	    -11.75726211	    -11.45271061	     22.13389067	      0.38630927	     -3.10873927	      0.00000000	      0.00000000	     52.88615518	    -13.32392675	     -6.23079164	     23.76644307	      0.41480268	     -4.11314041	      0.00000000	      0.00000000	    -48.74547242	      0.21234589	      2.32618137	     54.08965017	    -20.02771898	     61.94866014	     23.11411286	     69.98038382	      0.00000000	      0.00000000	     56.77087514	     -5.87322460	     18.41721566	     14.66067404	     34.67215549	      0.00000000	      0.00000000
      7.54000000	     23.99841498	      3.37607515	   -176.92312641	      0.37333893	      0.83204454	     -0.59582049	     49.44534267	    -11.66511094	    -11.59459649	     22.12885112	      0.38622131	     -3.15611548	      0.00000000	      0.00000000	     52.71968456	    -13.42666193	     -6.16199226	     23.83241289	      0.41595407	     -3.99691524	      0.00000000	      0.00000000	    -48.57106013	      0.18627788	      2.45685743	     53.42575354	    -19.85348476	     60.31254251	     23.13417964	     68.69054512	      0.00000000	      0.00000000	     56.62123896	     -5.78619816	     18.50827633	     14.42169236	     34.87397554	      0.00000000	      0.00000000
      7.54500000	     23.73312249	      3.34668725	   -177.11474973	      0.37295774	      0.83264309	     -0.59622526	     49.14748465	    -11.49451532	    -11.52689732	     22.04244097	      0.38471317	     -3.16157100	      0.00000000	      0.00000000	     52.38541076	    -13.59904180	     -6.31468539	     23.86343853	      0.41649557	     -3.99179572	      0.00000000	      0.00000000	    -48.51762560	      0.01775217	      2.55379798	     53.02592392	    -19.80132457	     59.65952041	     23.28346634	     68.23899439	      0.00000000	      0.00000000	     56.41085769	     -5.84291966	     18.57810913	     14.41688792	     34.96930789	      0.00000000	      0.00000000
      7.55000000	     23.86315690	      3.58501792	   -176.90453225	      0.37304247	      0.83237908	     -0.59569394	     49.19754634	    -11.49979761	    -11.84168902	     21.97849694	      0.38359714	     -3.50225808	      0.00000000	      0.00000000	     52.70630771	    -13.47757826	     -5.51640407	     23.96277722	      0.41822936	     -4.09183683	      0.00000000	      0.00000000	    -47.98119654	      0.40322452	      2.49358566	     52.29534574	    -19.31151631	     57.41977250	     23.02174700	     66.31288073	      0.00000000	      0.00000000	     55.98931125	     -5.91409128	     18.60806729	     14.51039565	     35.54364962	      0.00000000	      0.00000000
      7.55500000	     23.28590262	      3.38242737	   -177.18915467	      0.37216423	      0.83346826	     -0.59630785	     48.67768275	    -11.42518285	    -11.86925221	     22.11155680	      0.38591947	     -3.32335765	      0.00000000	      0.00000000	     51.93135317	    -13.69582244	     -6.18522768	     24.01857215	      0.41920317	     -3.77289160	      0.00000000	      0.00000000	    -48.25258352	     -0.00051447	      2.68129045	     51.88450420	    -19.44801899	     56.95522079	     23.25251108	     65.89043128	      0.00000000	      0.00000000	     56.01097267	     -5.76698278	     18.67567173	     14.12812549	     35.76055623	      0.00000000	      0.00000000
      7.56000000	     23.05248411	      3.29367334	   -177.31714580	      0.37167844	      0.83390768	     -0.59655801	     48.43208328	    -11.35962443	    -11.75228268	     22.09010770	      0.38554511	     -3.27320545	      0.00000000	      0.00000000	     51.60844578	    -13.75423124	     -6.31062871	     24.03749438	      0.41953342	     -3.68866628	      0.00000000	      0.00000000	    -48.13502906	     -0.15931374	      2.72835524	     51.52885986	    -19.40165579	     56.62182323	     23.27123528	     65.53723833	      0.00000000	      0.00000000	     55.76316872	     -5.76382207	     18.63537547	     14.13041979	     36.02971337	      0.00000000	      0.00000000
      7.56500000	     22.65898965	      3.20328871	   -177.38054860	      0.37112696	      0.83460337	     -0.59664470	     47.99074578	    -11.33859777	    -11.69961074	     22.06110474	      0.38503891	     -3.12883747	      0.00000000	      0.00000000	     51.11873742	    -13.76874080	     -6.44664167	     24.05201319	      0.41978682	     -3.59119636	      0.00000000	      0.00000000	    -48.17722033	     -0.26011985	      2.69751283	     51.28829347	    -19.45834967	     56.66980969	     23.44424617	     65.55894270	      0.00000000	      0.00000000	     55.49388983	     -5.81319322	     18.64375699	     14.14722769	     36.23538815	      0.00000000	      0.00000000
      7.57000000	     22.52478145	      3.19222921	   -177.39899315	      0.37086599	      0.83473057	     -0.59664396	     47.87239284	    -11.30940063	    -11.62847588	     22.10833857	      0.38586330	     -3.14688050	      0.00000000	      0.00000000	     51.01138451	    -13.75984222	     -6.31282878	     24.16306824	      0.42172510	     -3.58940895	      0.00000000	      0.00000000	    -47.92007625	     -0.22013869	      2.57827276	     52.05009031	    -19.97111008	     61.10637542	     23.37706108	     69.65684979	      0.00000000	      0.00000000	     54.93106619	     -6.07472318	     18.47877448	     14.73550468	     35.49470900	      0.00000000	      0.00000000
      7.57500000	     22.14555523	      3.13705831	   -177.43980822	      0.37022301	      0.83530171	     -0.59680889	     47.47389061	    -11.29297771	    -11.67901243	     22.16635326	      0.38687585	     -3.13213116	      0.00000000	      0.00000000	     50.59051932	    -13.81755435	     -6.47403739	     24.28063723	      0.42377706	     -3.48133170	      0.00000000	      0.00000000	    -47.91568933	     -0.30036502	      2.58804369	     51.52225572	    -19.82221650	     60.03785503	     23.38189812	     69.39119056	      0.00000000	      0.00000000	     54.68036627	     -6.06448669	     18.45705447	     14.69423138	     35.50629335	      0.00000000	      0.00000000
